<svg width="24" height="25" viewBox="0 0 24 25" fill="none" xmlns="http://www.w3.org/2000/svg">
<path d="M20.3155 4.34333C18.13 2.10453 15.145 0.825221 11.9467 0.825221C5.44351 0.825221 0.113039 6.1557 0.113039 12.6589C0.113039 14.7911 0.699391 16.8166 1.71218 18.5757L0.0597343 24.7058L6.29639 23.1066C8.05545 24.0128 9.97442 24.5458 11.9467 24.5458C18.5032 24.5458 23.9403 19.2154 23.9403 12.7122C23.9403 9.5139 22.5543 6.58213 20.3155 4.34333ZM11.9467 22.5203C10.1876 22.5203 8.48189 22.0405 6.93605 21.1343L6.61622 20.9211L2.88489 21.9339L3.89768 18.3092L3.63115 17.936C2.67167 16.3369 2.13862 14.5245 2.13862 12.6589C2.13862 7.2751 6.56291 2.8508 12 2.8508C14.6119 2.8508 17.064 3.86359 18.9296 5.72926C20.7953 7.59492 21.9147 10.0469 21.9147 12.7122C21.9147 18.096 17.3838 22.5203 11.9467 22.5203ZM17.3838 15.1642C17.064 15.0043 15.6247 14.3113 15.3582 14.2047C15.0917 14.0981 14.8785 14.0448 14.6652 14.3646C14.5053 14.6312 13.919 15.3241 13.7591 15.5373C13.5458 15.6972 13.3859 15.7506 13.1194 15.5906C11.3603 14.7378 10.2409 14.0448 9.06824 12.0725C8.74841 11.5395 9.38807 11.5928 9.92111 10.4734C10.0277 10.2602 9.97442 10.1002 9.92111 9.94033C9.86781 9.78042 9.22815 8.34119 9.01493 7.75484C8.74841 7.16849 8.53519 7.22179 8.32197 7.22179C8.16206 7.22179 7.94884 7.22179 7.78892 7.22179C7.57571 7.22179 7.25588 7.2751 6.98935 7.59492C6.72283 7.91475 5.97656 8.60772 5.97656 10.0469C5.97656 11.5395 6.98935 12.9254 7.14927 13.1386C7.30918 13.2985 9.22815 16.2836 12.2132 17.5629C14.0789 18.4158 14.8252 18.4691 15.7846 18.3092C16.3177 18.2559 17.4904 17.6162 17.7569 16.9233C18.0234 16.2303 18.0234 15.6439 17.9168 15.5373C17.8635 15.3774 17.6503 15.3241 17.3838 15.1642Z" fill="white"/>
</svg>
