<svg width="28" height="27" viewBox="0 0 28 27" fill="none" xmlns="http://www.w3.org/2000/svg">
<path d="M9.49239 21.3348C9.49239 21.2282 9.38578 21.1215 9.22587 21.1215C9.06595 21.1215 8.95934 21.2282 8.95934 21.3348C8.95934 21.4414 9.06595 21.548 9.22587 21.4947C9.38578 21.4947 9.49239 21.4414 9.49239 21.3348ZM7.83994 21.0682C7.83994 21.1748 7.94655 21.3348 8.10647 21.3348C8.21308 21.3881 8.37299 21.3348 8.4263 21.2282C8.4263 21.1215 8.37299 21.0149 8.21308 20.9616C8.05316 20.9083 7.89325 20.9616 7.83994 21.0682ZM10.2387 21.0149C10.0787 21.0149 9.97214 21.1215 9.97214 21.2815C9.97214 21.3881 10.132 21.4414 10.292 21.3881C10.4519 21.3348 10.5585 21.2815 10.5052 21.1748C10.5052 21.0682 10.3453 20.9616 10.2387 21.0149ZM13.7035 0.545907C6.34741 0.545907 0.697107 6.19621 0.697107 13.5523C0.697107 19.4691 4.37514 24.533 9.70561 26.3454C10.3986 26.452 10.6118 26.0256 10.6118 25.7058C10.6118 25.3326 10.6118 23.5203 10.6118 22.4009C10.6118 22.4009 6.88046 23.2004 6.08089 20.8017C6.08089 20.8017 5.49454 19.2559 4.64166 18.8827C4.64166 18.8827 3.41565 18.0299 4.69496 18.0299C4.69496 18.0299 6.02758 18.1365 6.77385 19.4158C7.94655 21.4947 9.86553 20.9083 10.6651 20.5352C10.7717 19.6823 11.0915 19.096 11.518 18.7228C8.53291 18.403 5.49454 17.9766 5.49454 12.8593C5.49454 11.3668 5.92097 10.6738 6.77385 9.71432C6.61394 9.34119 6.1875 7.95527 6.93376 6.0896C7.99986 5.76977 10.6118 7.52883 10.6118 7.52883C11.6779 7.209 12.7973 7.10239 13.9167 7.10239C15.0894 7.10239 16.2088 7.209 17.2749 7.52883C17.2749 7.52883 19.8335 5.71647 20.9529 6.0896C21.6992 7.95527 21.2194 9.34119 21.1128 9.71432C21.9657 10.6738 22.4988 11.3668 22.4988 12.8593C22.4988 17.9766 19.3538 18.403 16.3687 18.7228C16.8484 19.1493 17.2749 19.9488 17.2749 21.2282C17.2749 22.9872 17.2216 25.226 17.2216 25.6524C17.2216 26.0256 17.4881 26.452 18.1811 26.2921C23.5115 24.533 27.1363 19.4691 27.1363 13.5523C27.1363 6.19621 21.1128 0.545907 13.7035 0.545907ZM5.86767 18.936C5.76106 18.9894 5.81436 19.1493 5.86767 19.2559C5.97428 19.3092 6.08089 19.3625 6.1875 19.3092C6.2408 19.2559 6.2408 19.096 6.13419 18.9894C6.02758 18.936 5.92097 18.8827 5.86767 18.936ZM5.28132 18.5096C5.22801 18.6162 5.28132 18.6695 5.38793 18.7228C5.49454 18.7761 5.60115 18.7761 5.65445 18.6695C5.65445 18.6162 5.60115 18.5629 5.49454 18.5096C5.38793 18.4563 5.33462 18.4563 5.28132 18.5096ZM6.98707 20.4286C6.93376 20.4819 6.93376 20.6418 7.09368 20.7484C7.20029 20.855 7.3602 20.9083 7.41351 20.8017C7.46681 20.7484 7.46681 20.5885 7.3602 20.4819C7.25359 20.3753 7.09368 20.322 6.98707 20.4286ZM6.40072 19.629C6.29411 19.6823 6.29411 19.8422 6.40072 19.9488C6.50733 20.0554 6.61394 20.1088 6.72054 20.0554C6.77385 20.0021 6.77385 19.8422 6.72054 19.7356C6.61394 19.629 6.50733 19.5757 6.40072 19.629Z" fill="white"/>
</svg>
