<svg width="31" height="21" viewBox="0 0 31 21" fill="none" xmlns="http://www.w3.org/2000/svg">
<path d="M29.4125 3.78256C29.0927 2.50325 28.0799 1.49046 26.8539 1.17063C24.5618 0.530973 15.5 0.530973 15.5 0.530973C15.5 0.530973 6.38489 0.530973 4.09278 1.17063C2.86677 1.49046 1.85398 2.50325 1.53415 3.78256C0.894496 6.02136 0.894496 10.8188 0.894496 10.8188C0.894496 10.8188 0.894496 15.5629 1.53415 17.855C1.85398 19.1343 2.86677 20.0938 4.09278 20.4136C6.38489 21 15.5 21 15.5 21C15.5 21 24.5618 21 26.8539 20.4136C28.0799 20.0938 29.0927 19.1343 29.4125 17.855C30.0522 15.5629 30.0522 10.8188 30.0522 10.8188C30.0522 10.8188 30.0522 6.02136 29.4125 3.78256ZM12.5149 15.1365V6.50111L20.0842 10.8188L12.5149 15.1365Z" fill="white"/>
</svg>
