<svg width="37" height="52" viewBox="0 0 37 52" fill="none" xmlns="http://www.w3.org/2000/svg">
<mask id="path-1-inside-1" fill="white">
<path d="M15.6942 14.8335V51.9792H21.1943V14.8335L33 31.4689L36.8885 25.9896L18.4443 0L0 25.9896L3.8885 31.4689L15.6942 14.8335Z"/>
</mask>
<path d="M15.6942 14.8335V51.9792H21.1943V14.8335L33 31.4689L36.8885 25.9896L18.4443 0L0 25.9896L3.8885 31.4689L15.6942 14.8335Z" fill="black"/>
<path d="M15.6942 14.8335H22.6943V-7.12524L9.9857 10.7823L15.6942 14.8335ZM15.6942 51.9792H8.69425V58.9792H15.6942V51.9792ZM21.1943 51.9792V58.9792H28.1943V51.9792H21.1943ZM21.1943 14.8335L26.9028 10.7823L14.1942 -7.12524V14.8335H21.1943ZM33 31.4689L27.2914 35.5201L33 43.564L38.7085 35.5201L33 31.4689ZM36.8885 25.9896L42.597 30.0409L45.4721 25.9896L42.597 21.9384L36.8885 25.9896ZM18.4443 0L24.1528 -4.05123L18.4442 -12.0951L12.7357 -4.05123L18.4443 0ZM0 25.9896L-5.70855 21.9384L-8.58362 25.9896L-5.70855 30.0409L0 25.9896ZM3.8885 31.4689L-1.82005 35.5201L3.8885 43.564L9.59705 35.5201L3.8885 31.4689ZM8.69425 14.8335V51.9792H22.6943V14.8335H8.69425ZM15.6942 58.9792H21.1943V44.9792H15.6942V58.9792ZM28.1943 51.9792V14.8335H14.1942V51.9792H28.1943ZM15.4857 18.8847L27.2914 35.5201L38.7085 27.4176L26.9028 10.7823L15.4857 18.8847ZM38.7085 35.5201L42.597 30.0409L31.18 21.9384L27.2914 27.4176L38.7085 35.5201ZM42.597 21.9384L24.1528 -4.05123L12.7357 4.05123L31.18 30.0409L42.597 21.9384ZM12.7357 -4.05123L-5.70855 21.9384L5.70855 30.0409L24.1528 4.05123L12.7357 -4.05123ZM-5.70855 30.0409L-1.82005 35.5201L9.59705 27.4176L5.70855 21.9384L-5.70855 30.0409ZM9.59705 35.5201L21.4028 18.8847L9.9857 10.7823L-1.82005 27.4176L9.59705 35.5201Z" fill="white" mask="url(#path-1-inside-1)"/>
</svg>
