<svg width="177" height="29" viewBox="0 0 177 29" fill="none" xmlns="http://www.w3.org/2000/svg">
<rect y="13" width="177" height="16" fill="#CCCCCC"/>
<rect y="13" width="157.333" height="16" fill="#666666"/>
<path d="M6.655 3.521H4.158V10H2.651V3.521H0.154V2.19H6.655V3.521ZM9.06959 10.11C8.44625 10.11 7.90725 9.97433 7.45259 9.703C7.00525 9.43167 6.65692 9.07233 6.40759 8.625C6.15825 8.17033 6.03359 7.679 6.03359 7.151C6.03359 6.60833 6.15459 6.10967 6.39659 5.655C6.64592 5.193 6.99792 4.82633 7.45259 4.555C7.90725 4.27633 8.44992 4.137 9.08059 4.137C9.71125 4.137 10.2503 4.27633 10.6976 4.555C11.1449 4.82633 11.4859 5.18933 11.7206 5.644C11.9626 6.09133 12.0836 6.57533 12.0836 7.096C12.0836 7.28667 12.0726 7.45167 12.0506 7.591H7.59559C7.63225 8.03833 7.79725 8.39033 8.09059 8.647C8.39125 8.90367 8.73592 9.032 9.12459 9.032C9.41792 9.032 9.69292 8.96233 9.94959 8.823C10.2136 8.67633 10.3933 8.48567 10.4886 8.251L11.7536 8.603C11.5409 9.043 11.1999 9.406 10.7306 9.692C10.2613 9.97067 9.70759 10.11 9.06959 10.11ZM7.56259 6.656H10.5766C10.5326 6.22333 10.3676 5.875 10.0816 5.611C9.80292 5.33967 9.46192 5.204 9.05859 5.204C8.66259 5.204 8.32159 5.33967 8.03559 5.611C7.75692 5.875 7.59925 6.22333 7.56259 6.656ZM13.7127 4.236L14.9227 6.04L15.0107 6.238L15.1207 6.04L16.3197 4.236H17.8707L15.8687 7.107L17.9037 10H16.3527L15.1097 8.207L15.0107 8.02L14.9227 8.207L13.6907 10H12.1397L14.1747 7.14L12.1727 4.236H13.7127ZM22.0645 9.703C21.8665 9.791 21.6208 9.879 21.3275 9.967C21.0415 10.055 20.7445 10.099 20.4365 10.099C20.1651 10.099 19.9158 10.0513 19.6885 9.956C19.4611 9.86067 19.2778 9.71033 19.1385 9.505C19.0065 9.29233 18.9405 9.01733 18.9405 8.68V5.369H18.1815V4.236H18.9405V2.366H20.4145V4.236H21.6245V5.369H20.4145V8.185C20.4145 8.383 20.4658 8.526 20.5685 8.614C20.6785 8.702 20.8105 8.746 20.9645 8.746C21.1185 8.746 21.2688 8.72033 21.4155 8.669C21.5621 8.61767 21.6795 8.57367 21.7675 8.537L22.0645 9.703ZM25.4189 10.11C24.7883 10.11 24.2456 9.97433 23.7909 9.703C23.3436 9.42433 22.9989 9.05767 22.7569 8.603C22.5149 8.14833 22.3939 7.657 22.3939 7.129C22.3939 6.59367 22.5149 6.09867 22.7569 5.644C23.0063 5.18933 23.3546 4.82633 23.8019 4.555C24.2566 4.27633 24.7956 4.137 25.4189 4.137C26.0423 4.137 26.5776 4.27633 27.0249 4.555C27.4796 4.82633 27.8279 5.18933 28.0699 5.644C28.3119 6.09867 28.4329 6.59367 28.4329 7.129C28.4329 7.657 28.3119 8.14833 28.0699 8.603C27.8279 9.05767 27.4796 9.42433 27.0249 9.703C26.5776 9.97433 26.0423 10.11 25.4189 10.11ZM23.9119 7.129C23.9119 7.46633 23.9779 7.767 24.1099 8.031C24.2419 8.28767 24.4216 8.48933 24.6489 8.636C24.8763 8.78267 25.1329 8.856 25.4189 8.856C25.6976 8.856 25.9506 8.78267 26.1779 8.636C26.4053 8.482 26.5849 8.27667 26.7169 8.02C26.8563 7.756 26.9259 7.45533 26.9259 7.118C26.9259 6.788 26.8563 6.49467 26.7169 6.238C26.5849 5.974 26.4053 5.76867 26.1779 5.622C25.9506 5.468 25.6976 5.391 25.4189 5.391C25.1329 5.391 24.8763 5.468 24.6489 5.622C24.4216 5.76867 24.2419 5.974 24.1099 6.238C23.9779 6.49467 23.9119 6.79167 23.9119 7.129Z" fill="black"/>
<path d="M154.365 8.669V10H149.899V8.669H151.461V5.336C151.373 5.446 151.223 5.56333 151.01 5.688C150.805 5.81267 150.577 5.919 150.328 6.007C150.086 6.095 149.87 6.139 149.679 6.139V4.764C149.811 4.764 149.969 4.72367 150.152 4.643C150.343 4.555 150.53 4.45233 150.713 4.335C150.904 4.21767 151.065 4.104 151.197 3.994C151.336 3.87667 151.424 3.785 151.461 3.719H152.968V8.669H154.365ZM160.846 6.777C160.846 7.42233 160.721 7.998 160.472 8.504C160.23 9.00267 159.892 9.395 159.46 9.681C159.034 9.967 158.55 10.11 158.008 10.11C157.465 10.11 156.977 9.967 156.545 9.681C156.119 9.395 155.782 9.00267 155.533 8.504C155.291 7.998 155.17 7.42233 155.17 6.777C155.17 6.13167 155.291 5.55967 155.533 5.061C155.782 4.555 156.119 4.159 156.545 3.873C156.977 3.57967 157.465 3.433 158.008 3.433C158.55 3.433 159.034 3.57967 159.46 3.873C159.892 4.159 160.23 4.555 160.472 5.061C160.721 5.55967 160.846 6.13167 160.846 6.777ZM159.361 6.777C159.361 6.19033 159.232 5.71367 158.976 5.347C158.726 4.973 158.404 4.786 158.008 4.786C157.597 4.786 157.267 4.973 157.018 5.347C156.768 5.71367 156.644 6.19033 156.644 6.777C156.644 7.36367 156.768 7.84033 157.018 8.207C157.267 8.57367 157.597 8.757 158.008 8.757C158.404 8.757 158.726 8.57367 158.976 8.207C159.232 7.84033 159.361 7.36367 159.361 6.777ZM167.602 6.777C167.602 7.42233 167.478 7.998 167.228 8.504C166.986 9.00267 166.649 9.395 166.216 9.681C165.791 9.967 165.307 10.11 164.764 10.11C164.222 10.11 163.734 9.967 163.301 9.681C162.876 9.395 162.539 9.00267 162.289 8.504C162.047 7.998 161.926 7.42233 161.926 6.777C161.926 6.13167 162.047 5.55967 162.289 5.061C162.539 4.555 162.876 4.159 163.301 3.873C163.734 3.57967 164.222 3.433 164.764 3.433C165.307 3.433 165.791 3.57967 166.216 3.873C166.649 4.159 166.986 4.555 167.228 5.061C167.478 5.55967 167.602 6.13167 167.602 6.777ZM166.117 6.777C166.117 6.19033 165.989 5.71367 165.732 5.347C165.483 4.973 165.16 4.786 164.764 4.786C164.354 4.786 164.024 4.973 163.774 5.347C163.525 5.71367 163.4 6.19033 163.4 6.777C163.4 7.36367 163.525 7.84033 163.774 8.207C164.024 8.57367 164.354 8.757 164.764 8.757C165.16 8.757 165.483 8.57367 165.732 8.207C165.989 7.84033 166.117 7.36367 166.117 6.777ZM170.344 5.413C170.007 5.413 169.699 5.33967 169.42 5.193C169.149 5.039 168.933 4.83733 168.771 4.588C168.61 4.33133 168.529 4.049 168.529 3.741C168.529 3.433 168.61 3.15433 168.771 2.905C168.933 2.65567 169.149 2.45767 169.42 2.311C169.699 2.157 170.007 2.08 170.344 2.08C170.682 2.08 170.986 2.157 171.257 2.311C171.536 2.45767 171.756 2.65567 171.917 2.905C172.079 3.15433 172.159 3.433 172.159 3.741C172.159 4.049 172.079 4.33133 171.917 4.588C171.756 4.83733 171.536 5.039 171.257 5.193C170.986 5.33967 170.682 5.413 170.344 5.413ZM169.156 9.483L172.247 5.864L175.107 2.102L175.778 2.696L172.764 6.26L169.816 10.077L169.156 9.483ZM170.344 4.676C170.557 4.676 170.74 4.58433 170.894 4.401C171.048 4.21033 171.125 3.99033 171.125 3.741C171.125 3.49167 171.048 3.27533 170.894 3.092C170.74 2.90867 170.557 2.817 170.344 2.817C170.132 2.817 169.948 2.90867 169.794 3.092C169.64 3.27533 169.563 3.49167 169.563 3.741C169.563 3.99767 169.64 4.21767 169.794 4.401C169.948 4.58433 170.132 4.676 170.344 4.676ZM174.59 10.11C174.253 10.11 173.949 10.0367 173.677 9.89C173.406 9.736 173.186 9.53433 173.017 9.285C172.856 9.03567 172.775 8.757 172.775 8.449C172.775 8.141 172.856 7.86233 173.017 7.613C173.186 7.35633 173.406 7.15467 173.677 7.008C173.949 6.854 174.253 6.777 174.59 6.777C174.928 6.777 175.232 6.854 175.503 7.008C175.782 7.15467 176.002 7.35633 176.163 7.613C176.325 7.86233 176.405 8.141 176.405 8.449C176.405 8.757 176.325 9.03567 176.163 9.285C176.002 9.53433 175.782 9.736 175.503 9.89C175.232 10.0367 174.928 10.11 174.59 10.11ZM174.59 9.373C174.81 9.373 174.994 9.28133 175.14 9.098C175.294 8.91467 175.371 8.69833 175.371 8.449C175.371 8.19233 175.294 7.97233 175.14 7.789C174.986 7.60567 174.803 7.514 174.59 7.514C174.378 7.514 174.194 7.60933 174.04 7.8C173.886 7.98333 173.809 8.19967 173.809 8.449C173.809 8.69833 173.886 8.91467 174.04 9.098C174.194 9.28133 174.378 9.373 174.59 9.373Z" fill="black"/>
</svg>
