<svg width="25" height="25" viewBox="0 0 25 25" fill="none" xmlns="http://www.w3.org/2000/svg">
<path d="M22.6512 0.825221H2.12887C1.22269 0.825221 0.476421 1.62479 0.476421 2.58428V23C0.476421 23.9595 1.22269 24.7058 2.12887 24.7058H22.6512C23.5574 24.7058 24.357 23.9595 24.357 23V2.58428C24.357 1.62479 23.5574 0.825221 22.6512 0.825221ZM7.67256 21.2942H4.15445V9.94033H7.67256V21.2942ZM5.91351 8.34119C4.7408 8.34119 3.83462 7.43501 3.83462 6.31561C3.83462 5.19621 4.7408 4.23673 5.91351 4.23673C7.03291 4.23673 7.93909 5.19621 7.93909 6.31561C7.93909 7.43501 7.03291 8.34119 5.91351 8.34119ZM20.9454 21.2942H17.374V15.7506C17.374 14.4712 17.374 12.7655 15.5617 12.7655C13.696 12.7655 13.4295 14.2047 13.4295 15.6972V21.2942H9.91136V9.94033H13.2696V11.4862H13.3229C13.8026 10.58 14.9753 9.62051 16.6811 9.62051C20.2525 9.62051 20.9454 12.0192 20.9454 15.0576V21.2942Z" fill="white"/>
</svg>
