<svg width="28" height="23" viewBox="0 0 28 23" fill="none" xmlns="http://www.w3.org/2000/svg">
<path d="M25.0292 6.22179C26.0953 5.42222 27.0548 4.46273 27.801 3.34333C26.8416 3.76977 25.7222 4.0896 24.6028 4.19621C25.7755 3.50325 26.6283 2.43715 27.0548 1.10453C25.9887 1.74419 24.7627 2.22393 23.5367 2.49046C22.4706 1.37106 21.0313 0.731402 19.4322 0.731402C16.3405 0.731402 13.8352 3.23673 13.8352 6.3284C13.8352 6.75484 13.8885 7.18128 13.9951 7.60772C9.3576 7.34119 5.19983 5.10239 2.42798 1.74419C1.94824 2.54376 1.68172 3.50325 1.68172 4.56934C1.68172 6.48832 2.6412 8.19407 4.18704 9.20686C3.28086 9.15355 2.37468 8.94033 1.62841 8.5139V8.5672C1.62841 11.2857 3.54738 13.5245 6.10601 14.0576C5.67957 14.1642 5.14653 14.2708 4.66678 14.2708C4.29365 14.2708 3.97382 14.2175 3.60069 14.1642C4.29365 16.403 6.37253 18.0021 8.82455 18.0554C6.90558 19.548 4.50687 20.4542 1.89493 20.4542C1.41519 20.4542 0.988754 20.4009 0.562316 20.3476C3.01433 21.9467 5.9461 22.8529 9.14438 22.8529C19.4322 22.8529 25.0292 14.3774 25.0292 6.96806C25.0292 6.70153 25.0292 6.48832 25.0292 6.22179Z" fill="white"/>
</svg>
